<svg xmlns="http://www.w3.org/2000/svg" width="24" height="25" fill="none">
  <path fill="#fff"
    d="M19.273 4H4.727A2.73 2.73 0 0 0 2 6.727v1.818c0 .5.41.91.91.91s.908-.41.908-.91V6.727c0-.5.41-.909.91-.909h14.545c.5 0 .909.41.909.91v10.908c0 .5-.41.91-.91.91h-5.454c-.5 0-.909.409-.909.909s.41.909.91.909h5.454A2.73 2.73 0 0 0 22 17.636V6.727A2.73 2.73 0 0 0 19.273 4ZM2 17.636v1.819c0 .5.41.909.91.909h1.817A2.73 2.73 0 0 0 2 17.636Zm1.06-3.541a.907.907 0 1 0-.3 1.79 4.529 4.529 0 0 1 3.717 3.72c.073.445.46.759.896.759.05 0 .1 0 .15-.014a.907.907 0 0 0 .745-1.046 6.355 6.355 0 0 0-5.209-5.209Z" />
  <path fill="#fff"
    d="M3 10.414a.909.909 0 1 0-.182 1.809c3.86.381 6.937 3.463 7.323 7.322.045.469.44.819.905.819h.09a.91.91 0 0 0 .814-.996c-.468-4.718-4.232-8.482-8.95-8.95v-.004Z" />
  <path fill="#fff"
    d="M13.245 16.727h4.21c.5 0 .909-.409.909-.909V8.545c0-.5-.41-.909-.91-.909H6.546c-.5 0-.909.41-.909.91v.572a11.848 11.848 0 0 1 7.61 7.61Z" />
</svg>