<svg xmlns="http://www.w3.org/2000/svg" width="48" height="48" fill="none">
  <path fill="#fff"
    d="M40.77 6H8.12A6.13 6.13 0 0 0 2 12.12v4.08a2.04 2.04 0 0 0 4.08 0v-4.08c0-1.12.92-2.04 2.04-2.04h32.65c1.13 0 2.04.92 2.04 2.04v24.49c0 1.12-.91 2.04-2.04 2.04H28.53c-1.12 0-2.04.92-2.04 2.04s.92 2.04 2.04 2.04h12.24a6.13 6.13 0 0 0 6.13-6.12V12.12A6.13 6.13 0 0 0 40.77 6ZM2 36.6v4.09c0 1.12.92 2.04 2.04 2.04h4.08A6.13 6.13 0 0 0 2 36.61Zm2.38-7.94a2.04 2.04 0 0 0-.68 4.02c4.28.71 7.64 4.07 8.35 8.35.16 1 1.03 1.7 2.01 1.7.11 0 .22 0 .34-.03a2.04 2.04 0 0 0 1.67-2.35 14.26 14.26 0 0 0-11.7-11.69Z" />
  <path fill="#fff"
    d="M4.24 20.4a2.04 2.04 0 1 0-.4 4.06 18.4 18.4 0 0 1 16.43 16.43c.1 1.05 1 1.84 2.04 1.84h.2a2.04 2.04 0 0 0 1.83-2.23 22.47 22.47 0 0 0-20.1-20.1Z" />
</svg>