<svg xmlns="http://www.w3.org/2000/svg" width="48" height="48" fill="none">
  <g clip-path="url(#a)">
    <path fill="#fff"
      d="M17 6a2 2 0 0 0-2 2v5.5c0 .8-.7 1.5-1.5 1.5H8a2 2 0 1 0 0 4h5.5c3 0 5.5-2.5 5.5-5.5V8a2 2 0 0 0-2-2Zm14 0a2 2 0 0 0-2 2v5.5c0 3 2.5 5.5 5.5 5.5H40a2 2 0 1 0 0-4h-5.5c-.8 0-1.5-.7-1.5-1.5V8a2 2 0 0 0-2-2ZM8 29a2 2 0 1 0 0 4h5.5c.8 0 1.5.7 1.5 1.5V40a2 2 0 1 0 4 0v-5.5c0-3-2.5-5.5-5.5-5.5H8Zm26.5 0c-3 0-5.5 2.5-5.5 5.5V40a2 2 0 1 0 4 0v-5.5c0-.8.7-1.5 1.5-1.5H40a2 2 0 1 0 0-4h-5.5Z" />
  </g>
  <defs>
    <clipPath id="a">
      <path fill="#fff" d="M0 0h48v48H0z" />
    </clipPath>
  </defs>
</svg>