<svg xmlns="http://www.w3.org/2000/svg" width="48" height="48" fill="none">
  <path fill="#fff" d="M42.12 24.36a2.39 2.39 0 0 0-2.38 2.38 15.5 15.5 0 0 1-15.49 15.48A15.5 15.5 0 0 1 8.76 26.74c0-8.54 6.32-14.82 14.3-15.43v3.05c0 1.45 1.63 2.3 2.81 1.47l8.22-5.8a1.78 1.78 0 0 0 0-2.91l-8.22-5.8a1.78 1.78 0 0 0-2.81 1.47v3.77A20.25 20.25 0 0 0 4 26.75C4 37.52 13.09 47 24.25 47A20.28 20.28 0 0 0 44.5 26.75a2.39 2.39 0 0 0-2.38-2.38v-.01Z"/>
  <path fill="#fff" d="M18.5 34.2h.45c.65 0 1.2-.54 1.2-1.2V20.96c0-.65-.55-1.2-1.2-1.2h-.4c-.24 0-.5.1-.7.24l-3.37 2.45a1.2 1.2 0 0 0-.25 1.68l.28.36c.39.52 1.13.63 1.65.23l1.15-.84v9.11c0 .66.53 1.2 1.19 1.2Zm9.94-14.51c-1.27 0-2.32.38-3.1 1.12a5.64 5.64 0 0 0-1.55 2.74c-.27 1-.4 2.18-.4 3.46 0 2.38.38 4.12 1.18 5.35a4.43 4.43 0 0 0 3.86 2.05 4.4 4.4 0 0 0 3.9-2.12c.76-1.23 1.13-2.96 1.13-5.28 0-1.3-.12-2.48-.36-3.48a5.35 5.35 0 0 0-1.5-2.74 4.43 4.43 0 0 0-3.14-1.1h-.02Zm1.52 11.07c-.23.4-.59.81-1.54.81a1.6 1.6 0 0 1-1.51-.83c-.31-.51-.68-1.57-.68-3.73 0-1 .1-1.9.27-2.65.16-.64.4-1.12.74-1.45.26-.26.66-.39 1.2-.39.55 0 .97.12 1.23.37.31.31.55.77.68 1.4.17.76.26 1.67.26 2.72 0 2.16-.34 3.23-.64 3.75h-.01Z"/>
</svg>