<svg xmlns="http://www.w3.org/2000/svg" width="48" height="48" fill="none">
  <path fill="#fff" d="M25.45 6.56V2.79c0-1.45-1.64-2.3-2.81-1.46L14.4 7.12a1.78 1.78 0 0 0 0 2.92l8.23 5.79a1.78 1.78 0 0 0 2.8-1.47v-3.05a15.5 15.5 0 0 1 14.3 15.43 15.5 15.5 0 0 1-15.48 15.5 15.5 15.5 0 0 1-15.5-15.5 2.39 2.39 0 0 0-2.38-2.38A2.39 2.39 0 0 0 4 26.74 20.3 20.3 0 0 0 24.26 47c11.16 0 20.25-9.1 20.25-20.26a20 20 0 0 0-19.06-20.2v.02Z"/>
  <path fill="#fff" d="M18.5 34.22h.45c.66 0 1.2-.54 1.2-1.2V20.98c0-.66-.54-1.2-1.2-1.2h-.39c-.25 0-.5.09-.7.23l-3.37 2.46a1.2 1.2 0 0 0-.25 1.68l.27.35c.4.53 1.13.64 1.66.24l1.14-.84V33c0 .66.54 1.2 1.2 1.2Zm9.94.21c1.71 0 3.06-.73 3.9-2.12.76-1.23 1.13-2.96 1.13-5.28 0-1.31-.12-2.48-.36-3.48a5.35 5.35 0 0 0-1.5-2.74 4.43 4.43 0 0 0-3.15-1.1c-1.3 0-2.32.39-3.1 1.12a5.64 5.64 0 0 0-1.56 2.74c-.26 1.02-.4 2.19-.4 3.47 0 2.39.4 4.12 1.19 5.35a4.43 4.43 0 0 0 3.86 2.05l-.01-.01Zm-1.92-10.04c.15-.64.4-1.12.74-1.45.26-.26.65-.39 1.2-.39.55 0 .97.12 1.23.37.3.3.55.77.68 1.4.17.76.26 1.67.26 2.72 0 2.16-.35 3.23-.64 3.76-.23.39-.59.8-1.54.8a1.6 1.6 0 0 1-1.51-.83c-.31-.51-.68-1.57-.68-3.73 0-1 .1-1.9.27-2.65h-.01Z"/>
</svg>