<svg xmlns="http://www.w3.org/2000/svg" width="48" height="48" fill="none">
  <path fill="#fff"
    d="M24.392 46.02c-1.633 0-3.275-.088-4.898-.264a1.46 1.46 0 0 1-1.242-1.027l-1.574-5.074a12.17 12.17 0 0 1-.998-.538.19.19 0 0 1-.058-.04 12.588 12.588 0 0 1-.9-.566L9.53 39.684a1.473 1.473 0 0 1-1.506-.567 45.79 45.79 0 0 1-4.898-8.487 1.451 1.451 0 0 1 .264-1.584l3.627-3.921a16.962 16.962 0 0 1 0-2.23L3.4 18.975a1.47 1.47 0 0 1-.264-1.594 45.948 45.948 0 0 1 4.9-8.478 1.47 1.47 0 0 1 1.505-.567l5.212 1.173c.615-.41 1.26-.782 1.935-1.114l1.584-5.104a1.487 1.487 0 0 1 1.242-1.027 45.581 45.581 0 0 1 9.798 0 1.46 1.46 0 0 1 1.241 1.027l1.575 5.074c.674.333 1.34.714 1.965 1.135l5.182-1.174a1.467 1.467 0 0 1 1.506.567 45.796 45.796 0 0 1 4.899 8.488 1.454 1.454 0 0 1-.264 1.584l-3.628 3.92c.05.744.05 1.487 0 2.23l3.618 3.92c.401.431.499 1.057.264 1.595A48.21 48.21 0 0 1 43.45 35a43.47 43.47 0 0 1-2.679 4.107c-.342.47-.938.694-1.505.567l-5.202-1.173c-.616.41-1.262.782-1.936 1.114l-1.584 5.095a1.487 1.487 0 0 1-1.242 1.026 45.544 45.544 0 0 1-4.899.264l-.01.02Zm-3.627-3.09a42.78 42.78 0 0 0 7.265 0l1.486-4.781c.127-.401.42-.733.802-.9.9-.4 1.77-.9 2.571-1.486a1.497 1.497 0 0 1 1.183-.244l4.88 1.105a40.558 40.558 0 0 0 1.946-3.07 43.662 43.662 0 0 0 1.681-3.218l-3.393-3.676a1.489 1.489 0 0 1-.381-1.144c.098-.988.098-1.995 0-2.973-.04-.42.098-.84.381-1.144l3.403-3.686a43.175 43.175 0 0 0-3.627-6.287l-4.86 1.095c-.41.098-.841 0-1.183-.245a14.989 14.989 0 0 0-2.601-1.505 1.482 1.482 0 0 1-.802-.91L28.04 5.1a42.917 42.917 0 0 0-7.265 0l-1.487 4.79a1.46 1.46 0 0 1-.801.9c-.91.401-1.77.9-2.572 1.487a1.498 1.498 0 0 1-1.183.244l-4.889-1.105a43.17 43.17 0 0 0-3.628 6.287l3.393 3.677c.284.313.42.723.382 1.144a15.096 15.096 0 0 0 0 2.972c.039.42-.098.841-.382 1.154l-3.402 3.686a43.176 43.176 0 0 0 3.627 6.288l4.87-1.096c.41-.097.84 0 1.183.245a14.788 14.788 0 0 0 2.61 1.506c.382.176.675.498.802.9l1.477 4.761-.01-.01Zm3.618-10.599a8.345 8.345 0 0 1-4.146-1.115c-3.95-2.278-5.32-7.323-3.08-11.283.01-.02.02-.05.039-.069a8.243 8.243 0 0 1 5.045-3.872 8.23 8.23 0 0 1 6.307.831 8.27 8.27 0 0 1 3.872 5.046 8.23 8.23 0 0 1-.831 6.306 8.244 8.244 0 0 1-5.045 3.872 8.148 8.148 0 0 1-2.161.284Zm-4.616-11.059-.029.059a5.38 5.38 0 0 0 1.965 7.343 5.353 5.353 0 0 0 4.078.538 5.332 5.332 0 0 0 3.266-2.503 5.353 5.353 0 0 0 .537-4.078 5.36 5.36 0 0 0-2.503-3.265 5.316 5.316 0 0 0-4.077-.538 5.315 5.315 0 0 0-3.237 2.454v-.01Z" />
</svg>