<svg xmlns="http://www.w3.org/2000/svg" width="36" height="36">
  <g fill="none" fill-rule="evenodd">
    <path d="M0 0h36v36H0z" opacity=".5" />
    <path fill="#FFF"
      d="M21.8 1a16.3 16.3 0 0 1 6.8 3.2 17 17 0 0 1 4.7 5.8 17 17 0 0 1 1.7 7.5 17 17 0 0 1-1.7 7.6 17 17 0 0 1-4.7 5.8 16.3 16.3 0 0 1-6.8 3.2v-3.9a12.5 12.5 0 0 0 4.9-2.6A13.2 13.2 0 0 0 30 23a13.1 13.1 0 0 0 1.2-5.6c0-2-.4-3.8-1.2-5.5a13.2 13.2 0 0 0-3.3-4.5A12.5 12.5 0 0 0 21.8 5V1z" />
    <path fill="#FFF"
      d="M26.5 17.5a9 9 0 0 1-1.2 4.6 8.5 8.5 0 0 1-3.5 3V10a8.4 8.4 0 0 1 4.7 7.6zM1 12h7.5L18 2.4v30.3l-9.5-9.5H1z" />
  </g>
</svg>